<?xml version="1.0"?>
<svg xmlns="http://www.w3.org/2000/svg" xmlns:xlink="http://www.w3.org/1999/xlink" xmlns:svgjs="http://svgjs.com/svgjs" version="1.1" width="512" height="512" x="0" y="0" viewBox="0 0 512 512.00002" style="enable-background:new 0 0 512 512" xml:space="preserve" class=""><g transform="matrix(1,0,0,1,105,0)"><path xmlns="http://www.w3.org/2000/svg" d="m153.601562 204.800781c79.828126 0 110.933594-21.53125 110.933594-76.800781 0-37.09375-44.578125-76.800781-110.933594-76.800781-66.355468 0-110.933593 39.707031-110.933593 76.800781 0 55.269531 31.101562 76.800781 110.933593 76.800781zm0-136.535156c55.3125 0 93.863282 31.480469 93.863282 59.734375 0 32.683594-7.0625 59.734375-93.863282 59.734375-86.800781 0-93.867187-27.050781-93.867187-59.734375 0-28.253906 38.550781-59.734375 93.867187-59.734375zm0 0" fill="#9ca3af" data-original="#000000" style="" class=""/><path xmlns="http://www.w3.org/2000/svg" d="m103.3125 159.574219c4.6875 1.65625 9.613281 2.523437 14.585938 2.558593 3.066406.011719 6.121093-.363281 9.09375-1.117187 7.722656-1.628906 14.101562-7.046875 16.957031-14.40625 2.320312-7.542969.667969-15.75-4.394531-21.808594-10.429688-12.6875-27.082032-18.472656-43.128907-14.976562-7.722656 1.628906-14.101562 7.050781-16.953125 14.414062-4.71875 13.550781 5.757813 29.097657 23.839844 35.335938zm-7.738281-29.75c1.074219-1.890625 2.964843-3.175781 5.117187-3.480469 1.566406-.390625 3.175782-.585938 4.789063-.570312 3.070312.027343 6.117187.566406 9.011719 1.585937 4.480468 1.441406 8.453124 4.128906 11.460937 7.75 1.503906 1.566406 2.191406 3.746094 1.859375 5.894531-1.074219 1.894532-2.964844 3.179688-5.121094 3.484375-4.601562.988281-9.390625.636719-13.796875-1.015625-9.6875-3.355468-14.429687-10.4375-13.320312-13.648437zm0 0" fill="#9ca3af" data-original="#000000" style="" class=""/><path xmlns="http://www.w3.org/2000/svg" d="m180.207031 161.015625c2.972657.753906 6.03125 1.128906 9.097657 1.117187 4.96875-.035156 9.898437-.902343 14.582031-2.558593 18.082031-6.265625 28.5625-21.8125 23.894531-35.355469-2.867188-7.367188-9.265625-12.785156-17.007812-14.394531-16.050782-3.5-32.710938 2.28125-43.144532 14.976562-5.0625 6.058594-6.714844 14.265625-4.394531 21.808594 2.859375 7.363281 9.242187 12.78125 16.972656 14.40625zm-.851562-20.011719c-.332031-2.148437.355469-4.328125 1.859375-5.894531 3.007812-3.621094 6.984375-6.308594 11.46875-7.75 2.890625-1.019531 5.929687-1.558594 8.992187-1.585937 1.617188-.015626 3.230469.179687 4.796875.570312 2.15625.304688 4.050782 1.59375 5.121094 3.492188 1.117188 3.199218-3.628906 10.28125-13.320312 13.652343-4.410157 1.652344-9.199219 2.003907-13.800782 1.015625-2.152344-.304687-4.042968-1.589844-5.117187-3.480468zm0 0" fill="#9ca3af" data-original="#000000" style="" class=""/><path xmlns="http://www.w3.org/2000/svg" d="m200.535156 264.535156c-16.496094 0-29.867187 13.371094-29.867187 29.863282 0 16.496093 13.371093 29.867187 29.867187 29.867187 16.492188 0 29.863282-13.371094 29.863282-29.867187 0-16.492188-13.371094-29.863282-29.863282-29.863282zm0 42.664063c-7.070312 0-12.800781-5.730469-12.800781-12.800781 0-7.066407 5.730469-12.796876 12.800781-12.796876 7.066406 0 12.796875 5.730469 12.796875 12.796876 0 7.070312-5.730469 12.800781-12.796875 12.800781zm0 0" fill="#9ca3af" data-original="#000000" style="" class=""/><path xmlns="http://www.w3.org/2000/svg" d="m0 324.265625c0 49.316406 12.015625 102.402344 38.398438 102.402344 11.230468 0 20.796874-10.191407 27.640624-28.765625 13.253907 38.730468 29.390626 73 47.933594 95.425781 9.75 11.835937 24.289063 18.6875 39.628906 18.671875 15.332032.003906 29.859376-6.855469 39.601563-18.695312 18.527344-22.433594 34.671875-56.746094 47.933594-95.523438 5.578125 15.480469 14.257812 28.886719 27.664062 28.886719 26.382813 0 38.398438-53.085938 38.398438-102.402344 0-42.402344-9.042969-88.183594-28.671875-99.660156.804687-8.070313 1.460937-15.949219 1.921875-23.628907 12.039062-16.613281 18.21875-39.976562 18.21875-72.976562 0-88.292969-84.832031-128-145.066407-128-60.238281 0-145.066406 39.707031-145.066406 128 0 32.980469 6.175782 56.320312 18.191406 72.941406.460938 7.484375 1.125 15.4375 1.945313 23.664063-19.625 11.476562-28.671875 57.257812-28.671875 99.660156zm38.398438 85.335937c-6.382813 0-21.332032-29.015624-21.332032-85.335937 0-39.335937 7.507813-65.550781 14.140625-77.652344 5.449219 40.6875 13.84375 80.925781 25.113281 120.398438-5.511718 32.390625-15.011718 42.589843-17.921874 42.589843zm141.65625 72.832032c-6.507813 7.910156-16.210938 12.496094-26.453126 12.5-10.242187 0-19.949218-4.582032-26.453124-12.492188-39.972657-48.324218-70.921876-163.839844-80.839844-252.964844-.390625-3.660156-.699219-7.15625-1.03125-10.691406 24.21875 15.882813 60.382812 20.148438 108.324218 20.148438 47.9375 0 84.113282-4.265625 108.371094-20.148438-.324218 3.523438-.640625 7.023438-1.03125 10.667969-10.011718 89.15625-40.996094 204.679687-80.886718 252.980469zm110.078124-158.167969c0 56.320313-14.949218 85.335937-21.332031 85.335937-2.902343 0-12.390625-10.242187-17.921875-42.820312 11.25-39.402344 19.640625-79.558594 25.105469-120.167969 6.640625 12.082031 14.148437 38.296875 14.148437 77.652344zm-136.53125-307.199219c53.152344 0 128 34.414063 128 110.933594 0 73.695312-27.511718 93.867188-128 93.867188-100.488281 0-128-20.171876-128-93.867188 0-76.519531 74.84375-110.933594 128-110.933594zm0 0" fill="#9ca3af" data-original="#000000" style="" class=""/></g></svg>
